<?xml version="1.0" encoding="UTF-8"?>
<svg version="1.1" xmlns="http://www.w3.org/2000/svg" width="1200" height="675">
<path d="M0 0 C396 0 792 0 1200 0 C1200 222.75 1200 445.5 1200 675 C804 675 408 675 0 675 C0 452.25 0 229.5 0 0 Z " fill="#FEFEFE" transform="translate(0,0)"/>
<path d="M0 0 C2.43669001 0.38089587 3.71268928 0.70498658 5.45703125 2.49609375 C5.90433594 3.13675781 6.35164063 3.77742188 6.8125 4.4375 C7.32425781 5.15873047 7.83601563 5.87996094 8.36328125 6.62304688 C8.90339844 7.40744141 9.44351562 8.19183594 10 9 C10.85658203 10.21526367 10.85658203 10.21526367 11.73046875 11.45507812 C13.49637951 13.96360698 15.24823085 16.48158358 17 19 C18.50914306 21.14516594 20.02256258 23.28725687 21.53662109 25.42895508 C22.52020537 26.82097133 23.50227881 28.21405623 24.48291016 29.6081543 C28.0715552 34.70722121 31.71338711 39.76565042 35.375 44.8125 C40.58542777 51.9971426 45.68980941 59.25087487 50.76464844 66.53173828 C55.19417512 72.87597153 59.70232196 79.15913413 64.24609375 85.421875 C67.86978554 90.42098265 71.44897885 95.449049 75 100.5 C79.12386268 106.36491317 83.29325506 112.19425475 87.5 118 C94.24348241 127.30975489 100.86834937 136.70052336 107.47949219 146.10449219 C113.6433473 154.86878716 119.85741881 163.59275544 126.14428711 172.26928711 C130.30294164 178.01573517 134.40045858 183.80302685 138.48046875 189.60546875 C142.11454647 194.76566835 145.7967868 199.88923563 149.5 205 C158.12757681 216.9097229 166.58448629 228.93973916 175 241 C176.29277786 240.14751605 177.58412941 239.29286927 178.875 238.4375 C179.69097656 237.89867187 180.50695312 237.35984375 181.34765625 236.8046875 C183.15247146 235.5766689 184.93080392 234.30901019 186.68359375 233.0078125 C187.55113281 232.36585938 188.41867187 231.72390625 189.3125 231.0625 C190.11300781 230.45535156 190.91351562 229.84820312 191.73828125 229.22265625 C194 228 194 228 196.29296875 228.30859375 C196.85628906 228.53675781 197.41960938 228.76492188 198 229 C197.62725409 231.58242263 197.26502965 232.75371607 195.32592773 234.55566406 C194.61895752 235.03745117 193.9119873 235.51923828 193.18359375 236.015625 C192.41982422 236.54414063 191.65605469 237.07265625 190.86914062 237.6171875 C190.06669922 238.15601563 189.26425781 238.69484375 188.4375 239.25 C187.63119141 239.80429687 186.82488281 240.35859375 185.99414062 240.9296875 C184.00270077 242.29659296 182.00475077 243.65272637 180 245 C180.56371414 248.26954202 181.49962266 249.82575883 184 252 C185.04800781 251.22914063 186.09601562 250.45828125 187.17578125 249.6640625 C188.55466214 248.65100715 189.93356979 247.63798822 191.3125 246.625 C192.00279297 246.11710938 192.69308594 245.60921875 193.40429688 245.0859375 C194.07138672 244.59609375 194.73847656 244.10625 195.42578125 243.6015625 C196.34484253 242.92601318 196.34484253 242.92601318 197.2824707 242.23681641 C198.83003577 241.12239357 200.41322623 240.05784918 202 239 C204.1875 239.375 204.1875 239.375 206 240 C205.62939552 242.57692959 205.28960179 243.73911765 203.32592773 245.50805664 C202.61895752 245.97074951 201.9119873 246.43344238 201.18359375 246.91015625 C200.41982422 247.42513672 199.65605469 247.94011719 198.86914062 248.47070312 C198.06669922 248.99599609 197.26425781 249.52128906 196.4375 250.0625 C194.84667695 251.10651737 193.26167897 252.15948303 191.68359375 253.22265625 C190.62483032 253.91500366 190.62483032 253.91500366 189.54467773 254.62133789 C189.03493408 255.07629639 188.52519043 255.53125488 188 256 C188 259.28475637 188.32839531 259.83004015 190.16796875 262.37890625 C190.64234375 263.04341797 191.11671875 263.70792969 191.60546875 264.39257812 C192.38857422 265.46668945 192.38857422 265.46668945 193.1875 266.5625 C193.72632813 267.31337891 194.26515625 268.06425781 194.8203125 268.83789062 C196.53978765 271.23046286 198.26914823 273.61564851 200 276 C201.09025624 277.50881661 202.18010797 279.01792561 203.26953125 280.52734375 C204.89206208 282.77454772 206.51534461 285.02118301 208.14135742 287.26586914 C212.3031971 293.01511886 216.40291723 298.80592519 220.48486328 304.61206055 C224.07395681 309.70904329 227.71423156 314.76681434 231.375 319.8125 C236.58542777 326.9971426 241.68980941 334.25087487 246.76464844 341.53173828 C251.19417512 347.87597153 255.70232196 354.15913413 260.24609375 360.421875 C263.86978554 365.42098265 267.44897885 370.449049 271 375.5 C275.12386145 381.36491143 279.29314288 387.19433732 283.5 393 C288.21135076 399.50188787 292.86610019 406.04039812 297.48266602 412.60986328 C301.08839006 417.73220107 304.75413493 422.80830712 308.4375 427.875 C313.50489403 434.85157225 318.41040895 441.92534153 323.23461914 449.07202148 C325.83949245 452.91328172 328.48890513 456.69452197 331.296875 460.390625 C331.81556152 461.07552002 332.33424805 461.76041504 332.86865234 462.46606445 C333.84722766 463.74677688 334.8366117 465.0193279 335.83837891 466.28198242 C337.1484375 467.99609375 337.1484375 467.99609375 339 471 C338.67 472.32 338.34 473.64 338 475 C115.91 475 -106.18 475 -335 475 C-336 471 -336 471 -335.1105957 469.16333008 C-334.63710693 468.53837646 -334.16361816 467.91342285 -333.67578125 467.26953125 C-333.14791016 466.55796875 -332.62003906 465.84640625 -332.07617188 465.11328125 C-331.49416016 464.35402344 -330.91214844 463.59476563 -330.3125 462.8125 C-329.09927463 461.18432784 -327.88705712 459.55540426 -326.67578125 457.92578125 C-326.05783691 457.10158691 -325.43989258 456.27739258 -324.80322266 455.42822266 C-322.13346638 451.83312438 -319.5654875 448.1698507 -317 444.5 C-312.87785608 438.63389832 -308.70672511 432.80571788 -304.5 427 C-298.25956748 418.38473364 -292.11798644 409.70248236 -286 401 C-279.34454829 391.53300433 -272.64579328 382.10172956 -265.85571289 372.73071289 C-262.20012243 367.67940109 -258.58648575 362.60056944 -255 357.5 C-250.87608724 351.63512143 -246.70674553 345.80574605 -242.5 340 C-236.76380993 332.08086856 -231.10864594 324.10743156 -225.48388672 316.10888672 C-222.49392482 311.85957924 -219.49485255 307.61669567 -216.49755859 303.37255859 C-214.00714626 299.84548681 -211.5188188 296.316985 -209.03515625 292.78515625 C-208.04445628 291.37747364 -207.05357085 289.96992152 -206.0625 288.5625 C-205.57515381 287.870354 -205.08780762 287.17820801 -204.58569336 286.46508789 C-201.92499407 282.69587274 -199.24204897 278.94431008 -196.53125 275.2109375 C-195.95238037 274.41357178 -195.37351074 273.61620605 -194.77709961 272.79467773 C-193.67105701 271.27412508 -192.56266689 269.7552759 -191.45141602 268.23852539 C-188.08545324 263.61425878 -184.96397736 258.89175415 -182 254 C-183.03640625 253.24074219 -184.0728125 252.48148438 -185.140625 251.69921875 C-186.51042517 250.6953241 -187.88021637 249.69141721 -189.25 248.6875 C-190.27287109 247.93823242 -190.27287109 247.93823242 -191.31640625 247.17382812 C-194.55663611 244.79870818 -197.79387256 242.42112201 -201 240 C-200.67 238.68 -200.34 237.36 -200 236 C-196.861561 236.61135036 -194.79808795 237.63656048 -192.21484375 239.50390625 C-191.51939453 239.99697266 -190.82394531 240.49003906 -190.10742188 240.99804688 C-188.65638381 242.04420483 -187.20586577 243.09108445 -185.75585938 244.13867188 C-185.06169922 244.63044922 -184.36753906 245.12222656 -183.65234375 245.62890625 C-182.70862915 246.3106189 -182.70862915 246.3106189 -181.74584961 247.00610352 C-179.90030144 248.24736896 -179.90030144 248.24736896 -177 248 C-175.28288757 245.55503957 -175.28288757 245.55503957 -174 243 C-175.03640625 242.24074219 -176.0728125 241.48148438 -177.140625 240.69921875 C-178.51042517 239.6953241 -179.88021637 238.69141721 -181.25 237.6875 C-182.27287109 236.93823242 -182.27287109 236.93823242 -183.31640625 236.17382812 C-186.55663611 233.79870818 -189.79387256 231.42112201 -193 229 C-192.67 227.68 -192.34 226.36 -192 225 C-188.861561 225.61135036 -186.79808795 226.63656048 -184.21484375 228.50390625 C-183.51939453 228.99697266 -182.82394531 229.49003906 -182.10742188 229.99804688 C-180.65638381 231.04420483 -179.20586577 232.09108445 -177.75585938 233.13867188 C-177.06169922 233.63044922 -176.36753906 234.12222656 -175.65234375 234.62890625 C-174.70862915 235.3106189 -174.70862915 235.3106189 -173.74584961 236.00610352 C-171.90030144 237.24736896 -171.90030144 237.24736896 -169 237 C-167.05021248 234.56200278 -165.29958818 232.14675745 -163.5625 229.5625 C-162.47939284 227.98942758 -161.39605321 226.41651521 -160.3125 224.84375 C-159.76078125 224.03550781 -159.2090625 223.22726562 -158.640625 222.39453125 C-156.14969584 218.75896083 -153.60756332 215.16028445 -151.0625 211.5625 C-150.57080322 210.86519775 -150.07910645 210.16789551 -149.57250977 209.44946289 C-145.37893266 203.5102048 -141.12163151 197.61812396 -136.85571289 191.73071289 C-133.20012243 186.67940109 -129.58648575 181.60056944 -126 176.5 C-121.33863251 169.87077288 -116.61055569 163.29271463 -111.85546875 156.73046875 C-107.69604907 150.98272652 -103.59656759 145.19496742 -99.51733398 139.39013672 C-95.9116111 134.26780058 -92.24596288 129.19162055 -88.5625 124.125 C-84.07451931 117.94841239 -79.71858153 111.69654921 -75.4375 105.375 C-70.97553076 98.7891414 -66.3421949 92.38315223 -61.51928711 86.05810547 C-57.67500887 80.98327975 -54.0642576 75.77442396 -50.5 70.5 C-46.47736636 64.54726661 -42.3564925 58.71309119 -38 53 C-33.03482106 46.48663644 -28.38780812 39.79428403 -23.79614258 33.01367188 C-19.11115652 26.11259516 -14.22281854 19.38162559 -9.24902344 12.68701172 C-7.25309265 9.99117869 -5.28334109 7.27672851 -3.3125 4.5625 C-2.66925781 3.67691406 -2.02601563 2.79132813 -1.36328125 1.87890625 C-0.91339844 1.25886719 -0.46351563 0.63882813 0 0 Z " fill="#FEFEFE" transform="translate(607,87)"/>
<path d="M0 0 C0.33 0 0.66 0 1 0 C1 151.47 1 302.94 1 459 C-60.71 459 -122.42 459 -186 459 C-187.32 449.76 -188.64 440.52 -190 431 C-191.51334958 425.41224771 -192.95142048 420.33510434 -195 415 C-195.56847656 413.46666016 -195.56847656 413.46666016 -196.1484375 411.90234375 C-206.19853025 386.30495986 -223.72452798 362.99098198 -247 348 C-244.03206737 342.56354648 -240.6679459 337.61043005 -237 332.625 C-235.8325356 331.02401891 -234.66588732 329.42244243 -233.5 327.8203125 C-232.91347656 327.0149707 -232.32695312 326.20962891 -231.72265625 325.37988281 C-229.11467007 321.77689964 -226.55579133 318.1401052 -224 314.5 C-219.92005758 308.6957882 -215.7913206 302.9299949 -211.625 297.1875 C-207.01864189 290.83580716 -202.48698863 284.43652926 -198 278 C-193.32850016 271.30675128 -188.63257145 264.63242307 -183.875 258 C-183.34261719 257.25234375 -182.81023437 256.5046875 -182.26171875 255.734375 C-181.76027344 255.03828125 -181.25882812 254.3421875 -180.7421875 253.625 C-180.3076123 253.01914062 -179.87303711 252.41328125 -179.42529297 251.7890625 C-177.75930826 249.69787785 -175.91788936 247.8600198 -174 246 C-173.40985107 246.42410156 -172.81970215 246.84820312 -172.21166992 247.28515625 C-169.54210562 249.19742901 -166.86496063 251.09880109 -164.1875 253 C-163.25873047 253.66773438 -162.32996094 254.33546875 -161.37304688 255.0234375 C-160.48037109 255.65507812 -159.58769531 256.28671875 -158.66796875 256.9375 C-157.84578857 257.52402344 -157.0236084 258.11054688 -156.17651367 258.71484375 C-153.9907223 260.25422309 -153.9907223 260.25422309 -151 260 C-151.37868346 257.55402393 -151.67143528 256.30294924 -153.51879883 254.59960938 C-154.47822388 253.97795898 -154.47822388 253.97795898 -155.45703125 253.34375 C-156.15763672 252.87839844 -156.85824219 252.41304687 -157.58007812 251.93359375 C-158.31677734 251.46050781 -159.05347656 250.98742187 -159.8125 250.5 C-168.63710247 244.74243714 -168.63710247 244.74243714 -172 241 C-170.35 239.02 -168.7 237.04 -167 235 C-161.27728666 238.14015552 -156.11158648 241.72526417 -150.8984375 245.640625 C-147.33480411 248.36165681 -147.33480411 248.36165681 -143 249 C-143.37868346 246.55402393 -143.67143528 245.30294924 -145.51879883 243.59960938 C-146.47822388 242.97795898 -146.47822388 242.97795898 -147.45703125 242.34375 C-148.15763672 241.87839844 -148.85824219 241.41304687 -149.58007812 240.93359375 C-150.31677734 240.46050781 -151.05347656 239.98742187 -151.8125 239.5 C-160.63710247 233.74243714 -160.63710247 233.74243714 -164 230 C-162.67979265 228.17202059 -161.35957381 226.34404949 -160.03930664 224.51611328 C-158.87033465 222.89743497 -157.70155775 221.27861575 -156.53295898 219.65966797 C-153.60451768 215.60321998 -150.67382796 211.54847733 -147.734375 207.5 C-141.48215907 198.88096305 -135.3239204 190.20326164 -129.23510742 181.46801758 C-124.80577009 175.12378972 -120.29761118 168.84077372 -115.75390625 162.578125 C-112.13021446 157.57901735 -108.55102115 152.550951 -105 147.5 C-100.87613732 141.63508683 -96.70674494 135.80574525 -92.5 130 C-86.25956748 121.38473364 -80.11798644 112.70248236 -74 104 C-67.34454829 94.53300433 -60.64579328 85.10172956 -53.85571289 75.73071289 C-50.20012243 70.67940109 -46.58648575 65.60056944 -43 60.5 C-38.87608724 54.63512143 -34.70674553 48.80574605 -30.5 43 C-26.27726944 37.17028413 -22.08489443 31.32107626 -17.9375 25.4375 C-17.21276489 24.40991577 -17.21276489 24.40991577 -16.47338867 23.36157227 C-13.84617134 19.63235039 -11.22856048 15.8965832 -8.6171875 12.15625 C-8.06426025 11.36677979 -7.51133301 10.57730957 -6.94165039 9.76391602 C-5.87289555 8.23774115 -4.80688013 6.70964347 -3.74389648 5.17944336 C-2.52096177 3.43514246 -1.26405469 1.71473633 0 0 Z " fill="#FEFEFE" transform="translate(605,98)"/>
<path d="M0 0 C2.43669001 0.38089587 3.71268928 0.70498658 5.45703125 2.49609375 C5.90433594 3.13675781 6.35164063 3.77742188 6.8125 4.4375 C7.32425781 5.15873047 7.83601563 5.87996094 8.36328125 6.62304688 C8.90339844 7.40744141 9.44351562 8.19183594 10 9 C10.85658203 10.21526367 10.85658203 10.21526367 11.73046875 11.45507812 C13.49637951 13.96360698 15.24823085 16.48158358 17 19 C18.50914306 21.14516594 20.02256258 23.28725687 21.53662109 25.42895508 C22.52020537 26.82097133 23.50227881 28.21405623 24.48291016 29.6081543 C28.0715552 34.70722121 31.71338711 39.76565042 35.375 44.8125 C40.58542777 51.9971426 45.68980941 59.25087487 50.76464844 66.53173828 C55.19417512 72.87597153 59.70232196 79.15913413 64.24609375 85.421875 C67.86978554 90.42098265 71.44897885 95.449049 75 100.5 C79.12386268 106.36491317 83.29325506 112.19425475 87.5 118 C94.24348241 127.30975489 100.86834937 136.70052336 107.47949219 146.10449219 C113.6433473 154.86878716 119.85741881 163.59275544 126.14428711 172.26928711 C130.30294164 178.01573517 134.40045858 183.80302685 138.48046875 189.60546875 C142.11454647 194.76566835 145.7967868 199.88923563 149.5 205 C158.12757681 216.9097229 166.58448629 228.93973916 175 241 C176.29277786 240.14751605 177.58412941 239.29286927 178.875 238.4375 C179.69097656 237.89867187 180.50695312 237.35984375 181.34765625 236.8046875 C183.15247146 235.5766689 184.93080392 234.30901019 186.68359375 233.0078125 C187.55113281 232.36585938 188.41867187 231.72390625 189.3125 231.0625 C190.11300781 230.45535156 190.91351562 229.84820312 191.73828125 229.22265625 C194 228 194 228 196.29296875 228.30859375 C196.85628906 228.53675781 197.41960938 228.76492188 198 229 C197.62725409 231.58242263 197.26502965 232.75371607 195.32592773 234.55566406 C194.61895752 235.03745117 193.9119873 235.51923828 193.18359375 236.015625 C192.41982422 236.54414063 191.65605469 237.07265625 190.86914062 237.6171875 C190.06669922 238.15601563 189.26425781 238.69484375 188.4375 239.25 C187.63119141 239.80429687 186.82488281 240.35859375 185.99414062 240.9296875 C184.00270077 242.29659296 182.00475077 243.65272637 180 245 C180.56371414 248.26954202 181.49962266 249.82575883 184 252 C185.04800781 251.22914063 186.09601562 250.45828125 187.17578125 249.6640625 C188.55466214 248.65100715 189.93356979 247.63798822 191.3125 246.625 C192.00279297 246.11710938 192.69308594 245.60921875 193.40429688 245.0859375 C194.07138672 244.59609375 194.73847656 244.10625 195.42578125 243.6015625 C196.34484253 242.92601318 196.34484253 242.92601318 197.2824707 242.23681641 C198.83003577 241.12239357 200.41322623 240.05784918 202 239 C204.1875 239.375 204.1875 239.375 206 240 C205.62939552 242.57692959 205.28960179 243.73911765 203.32592773 245.50805664 C202.61895752 245.97074951 201.9119873 246.43344238 201.18359375 246.91015625 C200.41982422 247.42513672 199.65605469 247.94011719 198.86914062 248.47070312 C198.06669922 248.99599609 197.26425781 249.52128906 196.4375 250.0625 C194.84667695 251.10651737 193.26167897 252.15948303 191.68359375 253.22265625 C190.62483032 253.91500366 190.62483032 253.91500366 189.54467773 254.62133789 C189.03493408 255.07629639 188.52519043 255.53125488 188 256 C188 259.28475637 188.32839531 259.83004015 190.16796875 262.37890625 C190.64234375 263.04341797 191.11671875 263.70792969 191.60546875 264.39257812 C192.38857422 265.46668945 192.38857422 265.46668945 193.1875 266.5625 C193.72632813 267.31337891 194.26515625 268.06425781 194.8203125 268.83789062 C196.53978765 271.23046286 198.26914823 273.61564851 200 276 C201.09025624 277.50881661 202.18010797 279.01792561 203.26953125 280.52734375 C204.89206208 282.77454772 206.51534461 285.02118301 208.14135742 287.26586914 C212.3031971 293.01511886 216.40291723 298.80592519 220.48486328 304.61206055 C224.07395681 309.70904329 227.71423156 314.76681434 231.375 319.8125 C236.58542777 326.9971426 241.68980941 334.25087487 246.76464844 341.53173828 C251.19417512 347.87597153 255.70232196 354.15913413 260.24609375 360.421875 C263.86978554 365.42098265 267.44897885 370.449049 271 375.5 C275.12386145 381.36491143 279.29314288 387.19433732 283.5 393 C288.21135076 399.50188787 292.86610019 406.04039812 297.48266602 412.60986328 C301.08839006 417.73220107 304.75413493 422.80830712 308.4375 427.875 C313.50489403 434.85157225 318.41040895 441.92534153 323.23461914 449.07202148 C325.83949245 452.91328172 328.48890513 456.69452197 331.296875 460.390625 C331.81556152 461.07552002 332.33424805 461.76041504 332.86865234 462.46606445 C333.84722766 463.74677688 334.8366117 465.0193279 335.83837891 466.28198242 C337.1484375 467.99609375 337.1484375 467.99609375 339 471 C338.67 472.32 338.34 473.64 338 475 C115.91 475 -106.18 475 -335 475 C-336 471 -336 471 -335.1105957 469.16333008 C-334.63710693 468.53837646 -334.16361816 467.91342285 -333.67578125 467.26953125 C-333.14791016 466.55796875 -332.62003906 465.84640625 -332.07617188 465.11328125 C-331.49416016 464.35402344 -330.91214844 463.59476563 -330.3125 462.8125 C-329.09927463 461.18432784 -327.88705712 459.55540426 -326.67578125 457.92578125 C-326.05783691 457.10158691 -325.43989258 456.27739258 -324.80322266 455.42822266 C-322.13346638 451.83312438 -319.5654875 448.1698507 -317 444.5 C-312.87785608 438.63389832 -308.70672511 432.80571788 -304.5 427 C-298.25956748 418.38473364 -292.11798644 409.70248236 -286 401 C-279.34454829 391.53300433 -272.64579328 382.10172956 -265.85571289 372.73071289 C-262.20012243 367.67940109 -258.58648575 362.60056944 -255 357.5 C-250.87608724 351.63512143 -246.70674553 345.80574605 -242.5 340 C-236.76380993 332.08086856 -231.10864594 324.10743156 -225.48388672 316.10888672 C-222.49392482 311.85957924 -219.49485255 307.61669567 -216.49755859 303.37255859 C-214.00714626 299.84548681 -211.5188188 296.316985 -209.03515625 292.78515625 C-208.04445628 291.37747364 -207.05357085 289.96992152 -206.0625 288.5625 C-205.57515381 287.870354 -205.08780762 287.17820801 -204.58569336 286.46508789 C-201.92499407 282.69587274 -199.24204897 278.94431008 -196.53125 275.2109375 C-195.95238037 274.41357178 -195.37351074 273.61620605 -194.77709961 272.79467773 C-193.67105701 271.27412508 -192.56266689 269.7552759 -191.45141602 268.23852539 C-188.08545324 263.61425878 -184.96397736 258.89175415 -182 254 C-183.03640625 253.24074219 -184.0728125 252.48148438 -185.140625 251.69921875 C-186.51042517 250.6953241 -187.88021637 249.69141721 -189.25 248.6875 C-190.27287109 247.93823242 -190.27287109 247.93823242 -191.31640625 247.17382812 C-194.55663611 244.79870818 -197.79387256 242.42112201 -201 240 C-200.67 238.68 -200.34 237.36 -200 236 C-196.861561 236.61135036 -194.79808795 237.63656048 -192.21484375 239.50390625 C-191.51939453 239.99697266 -190.82394531 240.49003906 -190.10742188 240.99804688 C-188.65638381 242.04420483 -187.20586577 243.09108445 -185.75585938 244.13867188 C-185.06169922 244.63044922 -184.36753906 245.12222656 -183.65234375 245.62890625 C-182.70862915 246.3106189 -182.70862915 246.3106189 -181.74584961 247.00610352 C-179.90030144 248.24736896 -179.90030144 248.24736896 -177 248 C-175.28288757 245.55503957 -175.28288757 245.55503957 -174 243 C-175.03640625 242.24074219 -176.0728125 241.48148438 -177.140625 240.69921875 C-178.51042517 239.6953241 -179.88021637 238.69141721 -181.25 237.6875 C-182.27287109 236.93823242 -182.27287109 236.93823242 -183.31640625 236.17382812 C-186.55663611 233.79870818 -189.79387256 231.42112201 -193 229 C-192.67 227.68 -192.34 226.36 -192 225 C-188.861561 225.61135036 -186.79808795 226.63656048 -184.21484375 228.50390625 C-183.51939453 228.99697266 -182.82394531 229.49003906 -182.10742188 229.99804688 C-180.65638381 231.04420483 -179.20586577 232.09108445 -177.75585938 233.13867188 C-177.06169922 233.63044922 -176.36753906 234.12222656 -175.65234375 234.62890625 C-174.70862915 235.3106189 -174.70862915 235.3106189 -173.74584961 236.00610352 C-171.90030144 237.24736896 -171.90030144 237.24736896 -169 237 C-167.05021248 234.56200278 -165.29958818 232.14675745 -163.5625 229.5625 C-162.47939284 227.98942758 -161.39605321 226.41651521 -160.3125 224.84375 C-159.76078125 224.03550781 -159.2090625 223.22726562 -158.640625 222.39453125 C-156.14969584 218.75896083 -153.60756332 215.16028445 -151.0625 211.5625 C-150.57080322 210.86519775 -150.07910645 210.16789551 -149.57250977 209.44946289 C-145.37893266 203.5102048 -141.12163151 197.61812396 -136.85571289 191.73071289 C-133.20012243 186.67940109 -129.58648575 181.60056944 -126 176.5 C-121.33863251 169.87077288 -116.61055569 163.29271463 -111.85546875 156.73046875 C-107.69604907 150.98272652 -103.59656759 145.19496742 -99.51733398 139.39013672 C-95.9116111 134.26780058 -92.24596288 129.19162055 -88.5625 124.125 C-84.07451931 117.94841239 -79.71858153 111.69654921 -75.4375 105.375 C-70.97553076 98.7891414 -66.3421949 92.38315223 -61.51928711 86.05810547 C-57.67500887 80.98327975 -54.0642576 75.77442396 -50.5 70.5 C-46.47736636 64.54726661 -42.3564925 58.71309119 -38 53 C-33.03482106 46.48663644 -28.38780812 39.79428403 -23.79614258 33.01367188 C-19.11115652 26.11259516 -14.22281854 19.38162559 -9.24902344 12.68701172 C-7.25309265 9.99117869 -5.28334109 7.27672851 -3.3125 4.5625 C-2.66925781 3.67691406 -2.02601563 2.79132813 -1.36328125 1.87890625 C-0.91339844 1.25886719 -0.46351563 0.63882813 0 0 Z M-2 11 C-3.78894267 13.43666329 -5.52854412 15.89109251 -7.25 18.375 C-8.3480661 19.94593654 -9.44705455 21.51622869 -10.546875 23.0859375 C-11.40249023 24.30748535 -11.40249023 24.30748535 -12.27539062 25.55371094 C-14.98273324 29.3939676 -17.74049209 33.19714164 -20.5 37 C-24.70728353 42.80535048 -28.87609303 48.63512966 -33 54.5 C-37.12391276 60.36487857 -41.29325447 66.19425395 -45.5 72 C-51.74043252 80.61526636 -57.88201356 89.29751764 -64 98 C-70.65545171 107.46699567 -77.35420672 116.89827044 -84.14428711 126.26928711 C-87.79987757 131.32059891 -91.41351425 136.39943056 -95 141.5 C-99.12391276 147.36487857 -103.29325447 153.19425395 -107.5 159 C-113.74043252 167.61526636 -119.88201356 176.29751764 -126 185 C-132.11799076 193.7024885 -138.25992061 202.38447279 -144.5 211 C-148.90449353 217.08343741 -153.28481071 223.18298113 -157.625 229.3125 C-158.12193359 230.01181641 -158.61886719 230.71113281 -159.13085938 231.43164062 C-161.5664 234.88058235 -163.88922319 238.33801473 -166 242 C-163.06314964 244.12589898 -160.12540807 246.25056304 -157.1875 248.375 C-156.35412109 248.97828125 -155.52074219 249.5815625 -154.66210938 250.203125 C-153.45844727 251.07324219 -153.45844727 251.07324219 -152.23046875 251.9609375 C-151.12288208 252.76217041 -151.12288208 252.76217041 -149.99291992 253.57958984 C-148.35009967 254.7504741 -146.67856292 255.88095806 -145 257 C-145 257.99 -145 258.98 -145 260 C-148.10056453 259.38906188 -150.1802382 258.39052565 -152.75 256.56640625 C-153.78640625 255.8403418 -153.78640625 255.8403418 -154.84375 255.09960938 C-155.5553125 254.59236328 -156.266875 254.08511719 -157 253.5625 C-158.41502261 252.56147404 -159.83164023 251.56269814 -161.25 250.56640625 C-161.87390625 250.12240479 -162.4978125 249.67840332 -163.140625 249.22094727 C-165.03309743 247.97826678 -166.95700277 246.97149716 -169 246 C-170.65 248.31 -172.3 250.62 -174 253 C-171.06314964 255.12589898 -168.12540807 257.25056304 -165.1875 259.375 C-164.35412109 259.97828125 -163.52074219 260.5815625 -162.66210938 261.203125 C-161.45844727 262.07324219 -161.45844727 262.07324219 -160.23046875 262.9609375 C-159.12288208 263.76217041 -159.12288208 263.76217041 -157.99291992 264.57958984 C-156.35009967 265.7504741 -154.67856292 266.88095806 -153 268 C-153 268.99 -153 269.98 -153 271 C-156.10056453 270.38906188 -158.1802382 269.39052565 -160.75 267.56640625 C-161.4409375 267.08236328 -162.131875 266.59832031 -162.84375 266.09960938 C-163.5553125 265.59236328 -164.266875 265.08511719 -165 264.5625 C-166.41502261 263.56147404 -167.83164023 262.56269814 -169.25 261.56640625 C-169.87390625 261.12240479 -170.4978125 260.67840332 -171.140625 260.22094727 C-173.03309743 258.97826678 -174.95700277 257.97149716 -177 257 C-183.36500936 265.31465186 -189.56387789 273.70445754 -195.4375 282.375 C-201.25322883 290.95908876 -207.26660511 299.38087306 -213.37060547 307.76171875 C-225.45544952 324.36253539 -237.35329374 341.08874723 -249 358 C-246.1788497 360.89924443 -243.42012302 363.53268364 -240.125 365.875 C-217.7574397 383.1353007 -201.62432141 407.85992583 -194 435 C-193.71769531 435.91910156 -193.43539062 436.83820313 -193.14453125 437.78515625 C-190.14342618 448.37281118 -189.43937969 458.96475573 -188 470 C-126.29 470 -64.58 470 -1 470 C-1 318.53 -1 167.06 -1 11 C-1.33 11 -1.66 11 -2 11 Z M4 11 C4 147.95 4 284.9 4 426 C20.17 426 36.34 426 53 426 C53 440.52 53 455.04 53 470 C98.54 470 144.08 470 191 470 C192.32 460.76 193.64 451.52 195 442 C196.51334958 436.41224771 197.95142048 431.33510434 200 426 C200.37898437 424.97777344 200.75796875 423.95554687 201.1484375 422.90234375 C211.19853025 397.30495986 228.72452798 373.99098198 252 359 C249.06522039 353.62893205 245.75296619 348.73616839 242.125 343.8125 C237.34180364 337.25875829 232.6354719 330.65903616 228 324 C221.9171403 315.27267575 215.71190156 306.63994954 209.46679688 298.02832031 C207.29752188 295.02859717 205.14795265 292.01500807 203 289 C201.79039897 287.30605769 200.58031368 285.61246225 199.37011719 283.91894531 C198.36980594 282.51793918 197.37061044 281.1161362 196.37207031 279.71386719 C194.62673988 277.26491673 192.87626033 274.81971241 191.125 272.375 C190.57714844 271.60414063 190.02929688 270.83328125 189.46484375 270.0390625 C188.94277344 269.31203125 188.42070313 268.585 187.8828125 267.8359375 C187.42277832 267.19188965 186.96274414 266.5478418 186.48876953 265.88427734 C184.80493483 263.75311365 182.95076933 261.88691264 181 260 C180.11477661 260.63615234 180.11477661 260.63615234 179.21166992 261.28515625 C176.54210562 263.19742901 173.86496063 265.09880109 171.1875 267 C170.25873047 267.66773438 169.32996094 268.33546875 168.37304688 269.0234375 C167.0340332 269.97089844 167.0340332 269.97089844 165.66796875 270.9375 C164.84578857 271.52402344 164.0236084 272.11054688 163.17651367 272.71484375 C161 274 161 274 158 274 C158.37868346 271.55402393 158.67143528 270.30294924 160.51879883 268.59960938 C161.15841553 268.18517578 161.79803223 267.77074219 162.45703125 267.34375 C163.15763672 266.87839844 163.85824219 266.41304687 164.58007812 265.93359375 C165.31677734 265.46050781 166.05347656 264.98742187 166.8125 264.5 C173.33794202 260.28758978 173.33794202 260.28758978 179 255 C177.35 253.02 175.7 251.04 174 249 C168.27728666 252.14015552 163.11158648 255.72526417 157.8984375 259.640625 C153.31928943 263 153.31928943 263 150 263 C150.37868346 260.55402393 150.67143528 259.30294924 152.51879883 257.59960938 C153.15841553 257.18517578 153.79803223 256.77074219 154.45703125 256.34375 C155.15763672 255.87839844 155.85824219 255.41304687 156.58007812 254.93359375 C157.31677734 254.46050781 158.05347656 253.98742187 158.8125 253.5 C165.33794202 249.28758978 165.33794202 249.28758978 171 244 C170.6690332 243.54375244 170.33806641 243.08750488 169.99707031 242.61743164 C161.41154227 230.7746618 152.93290453 218.86165628 144.52050781 206.89550781 C138.89421759 198.89556845 133.23721785 190.92087496 127.5 183 C120.75669759 173.69011208 114.13165286 164.29947981 107.52050781 154.89550781 C101.3566527 146.13121284 95.14258119 137.40724456 88.85571289 128.73071289 C84.69705836 122.98426483 80.59954142 117.19697315 76.51953125 111.39453125 C72.88545434 106.2343328 69.20328599 101.1107106 65.5 96 C60.78864924 89.49811213 56.13389981 82.95960188 51.51733398 76.39013672 C47.9116111 71.26780058 44.24596288 66.19162055 40.5625 61.125 C36.0745211 54.94841485 31.71849517 48.69660714 27.4375 42.375 C22.79442054 35.52002665 17.98347336 28.82854477 12.95678711 22.24951172 C10.7827652 19.40168347 8.67668417 16.55515407 6.72265625 13.55078125 C5.86994141 12.28814453 5.86994141 12.28814453 5 11 C4.67 11 4.34 11 4 11 Z " fill="#000000" transform="translate(607,87)"/>
<path d="M0 0 C1.87757703 2.44329649 3.63824659 4.89625141 5.375 7.4375 C6.4673101 9.01051238 7.55976183 10.58342641 8.65234375 12.15625 C9.21034668 12.96449219 9.76834961 13.77273438 10.34326172 14.60546875 C12.85235639 18.23193508 15.39333157 21.83559122 17.9375 25.4375 C18.42911621 26.13480225 18.92073242 26.83210449 19.42724609 27.55053711 C23.62130395 33.48951337 27.87833943 39.38183593 32.14428711 45.26928711 C36.30294164 51.01573517 40.40045858 56.80302685 44.48046875 62.60546875 C48.11455003 67.7656734 51.79711993 72.88899019 55.5 78 C59.93637641 84.13181115 64.36197004 90.27096815 68.75 96.4375 C69.26369141 97.15357422 69.77738281 97.86964844 70.30664062 98.60742188 C70.77779297 99.27193359 71.24894531 99.93644531 71.734375 100.62109375 C72.14913086 101.2030249 72.56388672 101.78495605 72.99121094 102.38452148 C74 104 74 104 75 107 C30.45 107 -14.1 107 -60 107 C-57.47232033 66.55712533 -42.34575977 34.08753265 -12 7 C-3.57513321 0 -3.57513321 0 0 0 Z " fill="#00A2E8" transform="translate(863,450)"/>
<path d="M0 0 C22.31207945 8.0245198 39.34860777 35.43279432 49.02294922 55.80273438 C56.38634383 72.36209258 58.8679584 88.88733436 60 107 C15.45 107 -29.1 107 -75 107 C-72.72550033 102.45100065 -69.99927714 98.43500075 -67.125 94.25 C-66.54492188 93.40308594 -65.96484375 92.55617188 -65.3671875 91.68359375 C-61.23387794 85.69029489 -56.93549567 79.84998937 -52.52197266 74.06152344 C-48.67665408 68.98565254 -45.06508447 63.77562618 -41.5 58.5 C-37.43566617 52.48577812 -33.27012579 46.58966453 -28.875 40.8125 C-23.98488483 34.38305191 -19.3668142 27.80705793 -14.82421875 21.12890625 C-11.70551584 16.54924946 -8.51265566 12.02296882 -5.3125 7.5 C-4.78269531 6.75113525 -4.25289063 6.00227051 -3.70703125 5.23071289 C-2.47215561 3.48657421 -1.23620341 1.74319783 0 0 Z " fill="#00A2E8" transform="translate(354,450)"/>
<path d="M0 0 C14.52 0 29.04 0 44 0 C44 12.87 44 25.74 44 39 C29.48 39 14.96 39 0 39 C0 26.13 0 13.26 0 0 Z " fill="#FFFFFF" transform="translate(611,518)"/>
<path d="M0 0 C3.19531348 2.15497886 4.32828916 3.18793775 5.6875 6.8125 C6.35527998 12.21244921 6.35978251 16.44392489 3.9375 21.375 C0.47040367 25.13102103 -1.04151502 25.71000121 -6.1875 26.125 C-10.19148455 26.00570065 -12.94625767 25.08275645 -16.3125 22.8125 C-19.95606334 18.92603244 -19.81179326 14.55836176 -19.66796875 9.4765625 C-19.06520347 4.95913481 -17.08872153 2.20810263 -13.5625 -0.5625 C-8.69094503 -1.91570971 -4.67302733 -1.67523621 0 0 Z " fill="#0A060A" transform="translate(592.3125,524.1875)"/>
<path d="M0 0 C3.8053125 -0.12375 3.8053125 -0.12375 7.6875 -0.25 C8.87218872 -0.30462402 8.87218872 -0.30462402 10.08081055 -0.36035156 C13.85702522 -0.41955634 15.68958973 -0.18360608 19.03125 1.79296875 C21 4 21 4 20.8125 7.5625 C20.544375 8.696875 20.27625 9.83125 20 11 C20 11.99 20 12.98 20 14 C20.66 14.66 21.32 15.32 22 16 C22.4375 19.375 22.4375 19.375 22 23 C19.88099208 25.37027368 18.19873363 26.8110874 14.99536133 27.31591797 C12.70932762 27.39346218 10.47326516 27.34885809 8.1875 27.25 C5.485625 27.1675 2.78375 27.085 0 27 C0 18.09 0 9.18 0 0 Z " fill="#03040A" transform="translate(226,549)"/>
<path d="M0 0 C2.64 0 5.28 0 8 0 C17 19.33333333 17 19.33333333 17 27 C15.35 27 13.7 27 12 27 C11.34 25.35 10.68 23.7 10 22 C6.04 21.67 2.08 21.34 -2 21 C-2.33 22.98 -2.66 24.96 -3 27 C-4.98 27 -6.96 27 -9 27 C-6.43696551 17.84951721 -3.20468777 8.93993804 0 0 Z " fill="#0E0A0D" transform="translate(606,45)"/>
<path d="M0 0 C1.485 0.37125 1.485 0.37125 3 0.75 C4.67601759 0.46741564 6.34594972 0.14116054 8 -0.25 C8.11644156 2.83301416 8.18732432 5.91546123 8.25 9 C8.30027344 10.30904297 8.30027344 10.30904297 8.3515625 11.64453125 C8.44995939 18.08952746 8.44995939 18.08952746 6.23828125 21.3359375 C2.57431827 23.65069247 0.28294474 23.1578995 -4 22.75 C-4.99 22.09 -5.98 21.43 -7 20.75 C-7 19.76 -7 18.77 -7 17.75 C-3.7 18.08 -0.4 18.41 3 18.75 C3 17.76 3 16.77 3 15.75 C1.9275 16.018125 0.855 16.28625 -0.25 16.5625 C-4 16.75 -4 16.75 -6.4375 14.75 C-8.38835235 11.00436349 -8.67032721 8.92092486 -8 4.75 C-4.37704918 -0.3647541 -4.37704918 -0.3647541 0 0 Z " fill="#0E0811" transform="translate(688,377.25)"/>
<path d="M0 0 C1.485 0.37125 1.485 0.37125 3 0.75 C4.67601759 0.46741564 6.34594972 0.14116054 8 -0.25 C8.11644156 2.83301416 8.18732432 5.91546123 8.25 9 C8.30027344 10.30904297 8.30027344 10.30904297 8.3515625 11.64453125 C8.44995939 18.08952746 8.44995939 18.08952746 6.23828125 21.3359375 C2.57431827 23.65069247 0.28294474 23.1578995 -4 22.75 C-4.99 22.09 -5.98 21.43 -7 20.75 C-7 19.76 -7 18.77 -7 17.75 C-3.7 18.08 -0.4 18.41 3 18.75 C3 17.76 3 16.77 3 15.75 C1.9275 16.018125 0.855 16.28625 -0.25 16.5625 C-4 16.75 -4 16.75 -6.4375 14.75 C-8.38835235 11.00436349 -8.67032721 8.92092486 -8 4.75 C-4.37704918 -0.3647541 -4.37704918 -0.3647541 0 0 Z " fill="#0E0811" transform="translate(669,377.25)"/>
<path d="M0 0 C1.485 0.37125 1.485 0.37125 3 0.75 C4.67601759 0.46741564 6.34594972 0.14116054 8 -0.25 C8.11644156 2.83301416 8.18732432 5.91546123 8.25 9 C8.30027344 10.30904297 8.30027344 10.30904297 8.3515625 11.64453125 C8.44995939 18.08952746 8.44995939 18.08952746 6.23828125 21.3359375 C2.57431827 23.65069247 0.28294474 23.1578995 -4 22.75 C-4.99 22.09 -5.98 21.43 -7 20.75 C-7 19.76 -7 18.77 -7 17.75 C-3.7 18.08 -0.4 18.41 3 18.75 C3 17.76 3 16.77 3 15.75 C1.9275 16.018125 0.855 16.28625 -0.25 16.5625 C-4 16.75 -4 16.75 -6.4375 14.75 C-8.38835235 11.00436349 -8.67032721 8.92092486 -8 4.75 C-4.37704918 -0.3647541 -4.37704918 -0.3647541 0 0 Z " fill="#0E0811" transform="translate(930,282.25)"/>
<path d="M0 0 C1.485 0.37125 1.485 0.37125 3 0.75 C4.67601759 0.46741564 6.34594972 0.14116054 8 -0.25 C8.11644156 2.83301416 8.18732432 5.91546123 8.25 9 C8.30027344 10.30904297 8.30027344 10.30904297 8.3515625 11.64453125 C8.44995939 18.08952746 8.44995939 18.08952746 6.23828125 21.3359375 C2.57431827 23.65069247 0.28294474 23.1578995 -4 22.75 C-4.99 22.09 -5.98 21.43 -7 20.75 C-7 19.76 -7 18.77 -7 17.75 C-3.7 18.08 -0.4 18.41 3 18.75 C3 17.76 3 16.77 3 15.75 C1.9275 16.018125 0.855 16.28625 -0.25 16.5625 C-4 16.75 -4 16.75 -6.4375 14.75 C-8.38835235 11.00436349 -8.67032721 8.92092486 -8 4.75 C-4.37704918 -0.3647541 -4.37704918 -0.3647541 0 0 Z " fill="#0E0811" transform="translate(432,280.25)"/>
<path d="M0 0 C2.18536546 1.79971273 3.12949135 3.1254772 4.125 5.75 C1.8125 6.4375 1.8125 6.4375 -0.875 6.75 C-1.875 5.75 -2.875 4.75 -3.875 3.75 C-6.875 3.16666667 -6.875 3.16666667 -9.875 3.75 C-12.22601344 5.55244364 -12.77186881 6.96935419 -13.15625 9.87890625 C-13.30435777 13.62479853 -13.29556839 16.031529 -11.375 19.3125 C-10.88 19.786875 -10.385 20.26125 -9.875 20.75 C-6.43706661 20.56870185 -6.43706661 20.56870185 -2.875 19.75 C-1.36205712 17.81402968 -1.36205712 17.81402968 -0.875 15.75 C0.775 16.41 2.425 17.07 4.125 17.75 C1.73098504 23.25623441 1.73098504 23.25623441 -0.5625 25.125 C-5.81492682 26.54457482 -9.49159552 26.46732084 -14.25 24 C-17.47273128 21.2376589 -18.66355163 19.37766071 -19.2109375 15.1640625 C-19.2944693 9.19989227 -19.11702761 5.34552991 -14.875 0.75 C-10.59839713 -2.61018797 -4.72624886 -2.05489081 0 0 Z " fill="#0D080A" transform="translate(985.875,544.25)"/>
<path d="M0 0 C2.475 0.495 2.475 0.495 5 1 C5.33 0.67 5.66 0.34 6 0 C7.93451665 0.26682988 9.86877314 0.53588761 11.80078125 0.8203125 C14.27884612 1.11192912 14.27884612 1.11192912 17.8125 0.375 C21 0 21 0 22.6875 1.02734375 C24.68748798 4.03327806 24.28541176 6.63003945 24.1875 10.1875 C24.16042969 11.45980469 24.13335938 12.73210937 24.10546875 14.04296875 C24.07066406 15.01878906 24.03585937 15.99460937 24 17 C22.35 17 20.7 17 19 17 C19 12.38 19 7.76 19 3 C17.68 3 16.36 3 15 3 C14.67 7.62 14.34 12.24 14 17 C12.68 17 11.36 17 10 17 C9.67 12.71 9.34 8.42 9 4 C7.68 4.33 6.36 4.66 5 5 C4.67 8.96 4.34 12.92 4 17 C2.68 17 1.36 17 0 17 C0 11.39 0 5.78 0 0 Z " fill="#020411" transform="translate(843,282)"/>
<path d="M0 0 C2.475 0.495 2.475 0.495 5 1 C5.33 0.67 5.66 0.34 6 0 C7.93451665 0.26682988 9.86877314 0.53588761 11.80078125 0.8203125 C14.27884612 1.11192912 14.27884612 1.11192912 17.8125 0.375 C21 0 21 0 22.6875 1.02734375 C24.68748798 4.03327806 24.28541176 6.63003945 24.1875 10.1875 C24.16042969 11.45980469 24.13335937 12.73210937 24.10546875 14.04296875 C24.07066406 15.01878906 24.03585937 15.99460937 24 17 C22.35 17 20.7 17 19 17 C19 12.38 19 7.76 19 3 C17.68 3 16.36 3 15 3 C14.67 7.62 14.34 12.24 14 17 C12.68 17 11.36 17 10 17 C9.67 12.71 9.34 8.42 9 4 C7.68 4.33 6.36 4.66 5 5 C4.67 8.96 4.34 12.92 4 17 C2.68 17 1.36 17 0 17 C0 11.39 0 5.78 0 0 Z " fill="#020411" transform="translate(345,280)"/>
<path d="M0 0 C3.375 1.0625 3.375 1.0625 5.3125 2.5625 C6.95182935 6.41974552 7.14245652 9.94747124 6.375 14.0625 C4.3125 17.1875 4.3125 17.1875 1.375 19.0625 C-2.25 19.1875 -2.25 19.1875 -5.625 18.0625 C-8.22546039 15.29426798 -8.85275509 12.75525783 -9.125 9.0625 C-8.98024138 5.74563933 -8.53511033 4.92902746 -6.5625 2 C-3.625 0.0625 -3.625 0.0625 0 0 Z " fill="#F5F7F4" transform="translate(586.625,526.9375)"/>
<path d="M0 0 C1.7109375 1.06640625 1.7109375 1.06640625 3 3 C3.51171875 6.35546875 3.51171875 6.35546875 3.6875 10.1875 C3.78611328 12.09595703 3.78611328 12.09595703 3.88671875 14.04296875 C3.92410156 15.01878906 3.96148438 15.99460937 4 17 C-1.11922936 17 -5.92454497 16.76610642 -11 16 C-11.33 14.02 -11.66 12.04 -12 10 C-9.06171403 7.49701566 -6.82097239 6.53069061 -3 6 C-2.67 5.01 -2.34 4.02 -2 3 C-3.65 3 -5.3 3 -7 3 C-7 3.66 -7 4.32 -7 5 C-8.32 4.67 -9.64 4.34 -11 4 C-10.67 3.01 -10.34 2.02 -10 1 C-6.88450128 -0.55774936 -3.3955612 -0.56480622 0 0 Z " fill="#110B0D" transform="translate(624,576)"/>
<path d="M0 0 C1.7109375 1.06640625 1.7109375 1.06640625 3 3 C3.51171875 6.35546875 3.51171875 6.35546875 3.6875 10.1875 C3.78611328 12.09595703 3.78611328 12.09595703 3.88671875 14.04296875 C3.92410156 15.01878906 3.96148438 15.99460937 4 17 C-1.11922936 17 -5.92454497 16.76610642 -11 16 C-11.33 14.02 -11.66 12.04 -12 10 C-9.06171403 7.49701566 -6.82097239 6.53069061 -3 6 C-2.67 5.01 -2.34 4.02 -2 3 C-3.65 3 -5.3 3 -7 3 C-7 3.66 -7 4.32 -7 5 C-8.32 4.67 -9.64 4.34 -11 4 C-10.67 3.01 -10.34 2.02 -10 1 C-6.88450128 -0.55774936 -3.3955612 -0.56480622 0 0 Z " fill="#110B0D" transform="translate(596,576)"/>
<path d="M0 0 C2.475 0.495 2.475 0.495 5 1 C6.19625 0.79375 7.3925 0.5875 8.625 0.375 C12 0 12 0 13.69921875 1.02734375 C15.68264773 4.03524656 15.28522496 6.63682659 15.1875 10.1875 C15.16042969 11.45980469 15.13335938 12.73210937 15.10546875 14.04296875 C15.07066406 15.01878906 15.03585937 15.99460937 15 17 C13.68 17 12.36 17 11 17 C10.67 12.71 10.34 8.42 10 4 C8.68 4 7.36 4 6 4 C5.67 8.29 5.34 12.58 5 17 C3.35 17 1.7 17 0 17 C0 11.39 0 5.78 0 0 Z " fill="#231E20" transform="translate(643,377)"/>
<path d="M0 0 C2.475 0.495 2.475 0.495 5 1 C6.19625 0.79375 7.3925 0.5875 8.625 0.375 C12 0 12 0 13.69921875 1.02734375 C15.68264773 4.03524656 15.28522496 6.63682659 15.1875 10.1875 C15.16042969 11.45980469 15.13335938 12.73210937 15.10546875 14.04296875 C15.07066406 15.01878906 15.03585937 15.99460937 15 17 C13.68 17 12.36 17 11 17 C10.67 12.71 10.34 8.42 10 4 C8.68 4 7.36 4 6 4 C5.67 8.29 5.34 12.58 5 17 C3.35 17 1.7 17 0 17 C0 11.39 0 5.78 0 0 Z " fill="#231E20" transform="translate(904,282)"/>
<path d="M0 0 C2.475 0.495 2.475 0.495 5 1 C6.19625 0.79375 7.3925 0.5875 8.625 0.375 C12 0 12 0 13.69921875 1.02734375 C15.68264773 4.03524656 15.28522496 6.63682659 15.1875 10.1875 C15.16042969 11.45980469 15.13335937 12.73210937 15.10546875 14.04296875 C15.07066406 15.01878906 15.03585937 15.99460937 15 17 C13.68 17 12.36 17 11 17 C10.67 12.71 10.34 8.42 10 4 C8.68 4 7.36 4 6 4 C5.67 8.29 5.34 12.58 5 17 C3.35 17 1.7 17 0 17 C0 11.39 0 5.78 0 0 Z " fill="#231E20" transform="translate(406,280)"/>
<path d="M0 0 C0.99 0.66 1.98 1.32 3 2 C2.67 2.99 2.34 3.98 2 5 C-0.64 4.67 -3.28 4.34 -6 4 C-5.46375 4.268125 -4.9275 4.53625 -4.375 4.8125 C-1.58333333 6.20833333 1.20833333 7.60416667 4 9 C4.25 11.3125 4.25 11.3125 4 14 C1.63019586 16.7489728 0.12597587 16.98650259 -3.5 17.375 C-7.0920849 16.99013376 -8.52584617 16.57311998 -11 14 C-11 13.34 -11 12.68 -11 12 C-7.50765756 11.90021879 -4.40562852 12.22157062 -1 13 C-0.67 12.34 -0.34 11.68 0 11 C-0.62648438 10.89042969 -1.25296875 10.78085937 -1.8984375 10.66796875 C-2.71570313 10.50941406 -3.53296875 10.35085938 -4.375 10.1875 C-5.59316406 9.96126953 -5.59316406 9.96126953 -6.8359375 9.73046875 C-9 9 -9 9 -11 6 C-10.8125 3.9375 -10.8125 3.9375 -10 2 C-6.31282562 -0.45811625 -4.35654296 -0.31118164 0 0 Z " fill="#0F0706" transform="translate(641,576)"/>
<path d="M0 0 C0.99 0.66 1.98 1.32 3 2 C2.67 2.99 2.34 3.98 2 5 C-0.64 4.67 -3.28 4.34 -6 4 C-5.46375 4.268125 -4.9275 4.53625 -4.375 4.8125 C-1.58333333 6.20833333 1.20833333 7.60416667 4 9 C4.25 11.3125 4.25 11.3125 4 14 C1.63019586 16.7489728 0.12597587 16.98650259 -3.5 17.375 C-7.0920849 16.99013376 -8.52584617 16.57311998 -11 14 C-11 13.34 -11 12.68 -11 12 C-7.50765756 11.90021879 -4.40562852 12.22157062 -1 13 C-0.67 12.34 -0.34 11.68 0 11 C-0.62648438 10.89042969 -1.25296875 10.78085937 -1.8984375 10.66796875 C-2.71570313 10.50941406 -3.53296875 10.35085938 -4.375 10.1875 C-5.59316406 9.96126953 -5.59316406 9.96126953 -6.8359375 9.73046875 C-9 9 -9 9 -11 6 C-10.8125 3.9375 -10.8125 3.9375 -10 2 C-6.31282562 -0.45811625 -4.35654296 -0.31118164 0 0 Z " fill="#0F0706" transform="translate(816,282)"/>
<path d="M0 0 C0.99 0.66 1.98 1.32 3 2 C2.67 2.99 2.34 3.98 2 5 C-0.64 4.67 -3.28 4.34 -6 4 C-5.46375 4.268125 -4.9275 4.53625 -4.375 4.8125 C-1.58333333 6.20833333 1.20833333 7.60416667 4 9 C4.25 11.3125 4.25 11.3125 4 14 C1.63019586 16.7489728 0.12597587 16.98650259 -3.5 17.375 C-7.0920849 16.99013376 -8.52584617 16.57311998 -11 14 C-11 13.34 -11 12.68 -11 12 C-7.50765756 11.90021879 -4.40562852 12.22157062 -1 13 C-0.67 12.34 -0.34 11.68 0 11 C-0.62648438 10.89042969 -1.25296875 10.78085937 -1.8984375 10.66796875 C-2.71570313 10.50941406 -3.53296875 10.35085938 -4.375 10.1875 C-5.59316406 9.96126953 -5.59316406 9.96126953 -6.8359375 9.73046875 C-9 9 -9 9 -11 6 C-10.8125 3.9375 -10.8125 3.9375 -10 2 C-6.31282562 -0.45811625 -4.35654296 -0.31118164 0 0 Z " fill="#0F0706" transform="translate(788,282)"/>
<path d="M0 0 C0.99 0.66 1.98 1.32 3 2 C2.67 2.99 2.34 3.98 2 5 C-0.64 4.67 -3.28 4.34 -6 4 C-5.46375 4.268125 -4.9275 4.53625 -4.375 4.8125 C-1.58333333 6.20833333 1.20833333 7.60416667 4 9 C4.25 11.3125 4.25 11.3125 4 14 C1.63019586 16.7489728 0.12597587 16.98650259 -3.5 17.375 C-7.0920849 16.99013376 -8.52584617 16.57311998 -11 14 C-11 13.34 -11 12.68 -11 12 C-7.50765756 11.90021879 -4.40562852 12.22157062 -1 13 C-0.67 12.34 -0.34 11.68 0 11 C-0.62648438 10.89042969 -1.25296875 10.78085937 -1.8984375 10.66796875 C-2.71570313 10.50941406 -3.53296875 10.35085938 -4.375 10.1875 C-5.59316406 9.96126953 -5.59316406 9.96126953 -6.8359375 9.73046875 C-9 9 -9 9 -11 6 C-10.8125 3.9375 -10.8125 3.9375 -10 2 C-6.31282562 -0.45811625 -4.35654296 -0.31118164 0 0 Z " fill="#0F0706" transform="translate(318,280)"/>
<path d="M0 0 C0.99 0.66 1.98 1.32 3 2 C2.67 2.99 2.34 3.98 2 5 C-0.64 4.67 -3.28 4.34 -6 4 C-5.46375 4.268125 -4.9275 4.53625 -4.375 4.8125 C-1.58333333 6.20833333 1.20833333 7.60416667 4 9 C4.25 11.3125 4.25 11.3125 4 14 C1.63019586 16.7489728 0.12597587 16.98650259 -3.5 17.375 C-7.0920849 16.99013376 -8.52584617 16.57311998 -11 14 C-11 13.34 -11 12.68 -11 12 C-7.50765756 11.90021879 -4.40562852 12.22157062 -1 13 C-0.67 12.34 -0.34 11.68 0 11 C-0.62648438 10.89042969 -1.25296875 10.78085937 -1.8984375 10.66796875 C-2.71570313 10.50941406 -3.53296875 10.35085938 -4.375 10.1875 C-5.59316406 9.96126953 -5.59316406 9.96126953 -6.8359375 9.73046875 C-9 9 -9 9 -11 6 C-10.8125 3.9375 -10.8125 3.9375 -10 2 C-6.31282562 -0.45811625 -4.35654296 -0.31118164 0 0 Z " fill="#0F0706" transform="translate(290,280)"/>
<path d="M0 0 C0.66 0 1.32 0 2 0 C2 1.65 2 3.3 2 5 C2.99 5 3.98 5 5 5 C5 5.99 5 6.98 5 8 C4.01 8 3.02 8 2 8 C2 11.63 2 15.26 2 19 C3.32 19 4.64 19 6 19 C6 19.99 6 20.98 6 22 C3.125 22.125 3.125 22.125 0 22 C-2 20 -2 20 -2.1953125 17.1796875 C-2.17210937 16.08914063 -2.14890625 14.99859375 -2.125 13.875 C-2.10695313 12.77929688 -2.08890625 11.68359375 -2.0703125 10.5546875 C-2.04710937 9.71164062 -2.02390625 8.86859375 -2 8 C-2.66 8 -3.32 8 -4 8 C-4 7.01 -4 6.02 -4 5 C-3.34 5 -2.68 5 -2 5 C-1.7834375 4.0409375 -1.7834375 4.0409375 -1.5625 3.0625 C-1 1 -1 1 0 0 Z " fill="#0B0305" transform="translate(625,372)"/>
<path d="M0 0 C2.475 0.495 2.475 0.495 5 1 C5.33 0.67 5.66 0.34 6 0 C7.66617115 -0.04063832 9.33388095 -0.042721 11 0 C10.67 0.99 10.34 1.98 10 3 C8.68 3.33 7.36 3.66 6 4 C5.67 8.29 5.34 12.58 5 17 C3.35 17 1.7 17 0 17 C0 11.39 0 5.78 0 0 Z " fill="#201711" transform="translate(881,282)"/>
<path d="M0 0 C2.475 0.495 2.475 0.495 5 1 C5.33 0.67 5.66 0.34 6 0 C7.66617115 -0.04063832 9.33388095 -0.042721 11 0 C10.67 0.99 10.34 1.98 10 3 C8.68 3.33 7.36 3.66 6 4 C5.67 8.29 5.34 12.58 5 17 C3.35 17 1.7 17 0 17 C0 11.39 0 5.78 0 0 Z " fill="#201711" transform="translate(383,280)"/>
<path d="M0 0 C1.32 0 2.64 0 4 0 C4 7.59 4 15.18 4 23 C2.68 23 1.36 23 0 23 C0 15.41 0 7.82 0 0 Z " fill="#0E0000" transform="translate(604,570)"/>
<path d="M0 0 C1.62463842 -0.05395478 3.24978541 -0.09277195 4.875 -0.125 C5.77992188 -0.14820313 6.68484375 -0.17140625 7.6171875 -0.1953125 C10 0 10 0 12 2 C11.44444444 6.55555556 11.44444444 6.55555556 10 8 C8.31391034 8.07205511 6.62499341 8.08386068 4.9375 8.0625 C4.01839844 8.05347656 3.09929687 8.04445313 2.15234375 8.03515625 C1.44207031 8.02355469 0.73179687 8.01195312 0 8 C0 5.36 0 2.72 0 0 Z " fill="#FBFBF5" transform="translate(231,564)"/>
<path d="M0 0 C4.43895554 -0.35991531 4.43895554 -0.35991531 6.65625 1.0625 C8.71722894 4.03414405 8.28541354 6.62997456 8.1875 10.1875 C8.16042969 11.45980469 8.13335938 12.73210937 8.10546875 14.04296875 C8.07066406 15.01878906 8.03585937 15.99460937 8 17 C6.35 17 4.7 17 3 17 C3 12.38 3 7.76 3 3 C1.68 2.67 0.36 2.34 -1 2 C-0.67 1.34 -0.34 0.68 0 0 Z " fill="#1B181A" transform="translate(859,282)"/>
<path d="M0 0 C4.43895554 -0.35991531 4.43895554 -0.35991531 6.65625 1.0625 C8.71722894 4.03414405 8.28541354 6.62997456 8.1875 10.1875 C8.16042969 11.45980469 8.13335937 12.73210937 8.10546875 14.04296875 C8.07066406 15.01878906 8.03585937 15.99460937 8 17 C6.35 17 4.7 17 3 17 C3 12.38 3 7.76 3 3 C1.68 2.67 0.36 2.34 -1 2 C-0.67 1.34 -0.34 0.68 0 0 Z " fill="#1B181A" transform="translate(361,280)"/>
<path d="M0 0 C1.6484375 1.06640625 1.6484375 1.06640625 3 3 C3.29296875 6.35546875 3.29296875 6.35546875 3.1875 10.1875 C3.16042969 11.45980469 3.13335938 12.73210937 3.10546875 14.04296875 C3.07066406 15.01878906 3.03585937 15.99460937 3 17 C1.68 17 0.36 17 -1 17 C-1.33 12.71 -1.66 8.42 -2 4 C-3.65 3.67 -5.3 3.34 -7 3 C-7 2.34 -7 1.68 -7 1 C-4.45132831 -0.27433584 -2.82594567 -0.27570202 0 0 Z " fill="#020214" transform="translate(655,377)"/>
<path d="M0 0 C1.6484375 1.06640625 1.6484375 1.06640625 3 3 C3.29296875 6.35546875 3.29296875 6.35546875 3.1875 10.1875 C3.16042969 11.45980469 3.13335938 12.73210937 3.10546875 14.04296875 C3.07066406 15.01878906 3.03585937 15.99460937 3 17 C1.68 17 0.36 17 -1 17 C-1.33 12.71 -1.66 8.42 -2 4 C-3.65 3.67 -5.3 3.34 -7 3 C-7 2.34 -7 1.68 -7 1 C-4.45132831 -0.27433584 -2.82594567 -0.27570202 0 0 Z " fill="#020214" transform="translate(916,282)"/>
<path d="M0 0 C1.6484375 1.06640625 1.6484375 1.06640625 3 3 C3.29296875 6.35546875 3.29296875 6.35546875 3.1875 10.1875 C3.16042969 11.45980469 3.13335937 12.73210937 3.10546875 14.04296875 C3.07066406 15.01878906 3.03585937 15.99460937 3 17 C1.68 17 0.36 17 -1 17 C-1.33 12.71 -1.66 8.42 -2 4 C-3.65 3.67 -5.3 3.34 -7 3 C-7 2.34 -7 1.68 -7 1 C-4.45132831 -0.27433584 -2.82594567 -0.27570202 0 0 Z " fill="#020214" transform="translate(418,280)"/>
<path d="M0 0 C1.45792884 -0.05399736 2.91642712 -0.09279177 4.375 -0.125 C5.18710938 -0.14820313 5.99921875 -0.17140625 6.8359375 -0.1953125 C9 0 9 0 11 2 C10.46428571 5.53571429 10.46428571 5.53571429 9 7 C7.48071962 7.07179964 5.95832518 7.08392007 4.4375 7.0625 C3.61121094 7.05347656 2.78492188 7.04445313 1.93359375 7.03515625 C1.29550781 7.02355469 0.65742188 7.01195312 0 7 C0 4.69 0 2.38 0 0 Z " fill="#FBFDF9" transform="translate(231,553)"/>
<path d="M0 0 C4.70588235 0.70588235 4.70588235 0.70588235 6 2 C6.26293056 6.03160191 6.29404844 7.55892734 4 11 C2.35 10.67 0.7 10.34 -1 10 C-1.02689216 8.52093108 -1.04634621 7.04172517 -1.0625 5.5625 C-1.07410156 4.73878906 -1.08570313 3.91507812 -1.09765625 3.06640625 C-1 1 -1 1 0 0 Z " fill="#EEECE4" transform="translate(686,380)"/>
<path d="M0 0 C4.70588235 0.70588235 4.70588235 0.70588235 6 2 C6.26293056 6.03160191 6.29404844 7.55892734 4 11 C2.35 10.67 0.7 10.34 -1 10 C-1.02689216 8.52093108 -1.04634621 7.04172517 -1.0625 5.5625 C-1.07410156 4.73878906 -1.08570313 3.91507812 -1.09765625 3.06640625 C-1 1 -1 1 0 0 Z " fill="#EEECE4" transform="translate(667,380)"/>
<path d="M0 0 C1.32 0 2.64 0 4 0 C4 5.61 4 11.22 4 17 C2.68 17 1.36 17 0 17 C0 11.39 0 5.78 0 0 Z " fill="#0E0000" transform="translate(701,377)"/>
<path d="M0 0 C1.32 0 2.64 0 4 0 C4 5.61 4 11.22 4 17 C2.68 17 1.36 17 0 17 C0 11.39 0 5.78 0 0 Z " fill="#0E0000" transform="translate(634,377)"/>
<path d="M0 0 C4.70588235 0.70588235 4.70588235 0.70588235 6 2 C6.26293056 6.03160191 6.29404844 7.55892734 4 11 C2.35 10.67 0.7 10.34 -1 10 C-1.02689216 8.52093108 -1.04634621 7.04172517 -1.0625 5.5625 C-1.07410156 4.73878906 -1.08570313 3.91507812 -1.09765625 3.06640625 C-1 1 -1 1 0 0 Z " fill="#EEECE4" transform="translate(928,285)"/>
<path d="M0 0 C4.70588235 0.70588235 4.70588235 0.70588235 6 2 C6.26293056 6.03160191 6.29404844 7.55892734 4 11 C2.35 10.67 0.7 10.34 -1 10 C-1.02689216 8.52093108 -1.04634621 7.04172517 -1.0625 5.5625 C-1.07410156 4.73878906 -1.08570313 3.91507812 -1.09765625 3.06640625 C-1 1 -1 1 0 0 Z " fill="#EEECE4" transform="translate(430,283)"/>
<path d="M0 0 C1.32 0 2.64 0 4 0 C4 5.61 4 11.22 4 17 C2.68 17 1.36 17 0 17 C0 11.39 0 5.78 0 0 Z " fill="#0E0000" transform="translate(895,282)"/>
<path d="M0 0 C1.32 0 2.64 0 4 0 C4 5.61 4 11.22 4 17 C2.68 17 1.36 17 0 17 C0 11.39 0 5.78 0 0 Z " fill="#0E0000" transform="translate(872,282)"/>
<path d="M0 0 C1.32 0 2.64 0 4 0 C4 5.61 4 11.22 4 17 C2.68 17 1.36 17 0 17 C0 11.39 0 5.78 0 0 Z " fill="#0E0000" transform="translate(825,282)"/>
<path d="M0 0 C1.32 0 2.64 0 4 0 C4 5.61 4 11.22 4 17 C2.68 17 1.36 17 0 17 C0 11.39 0 5.78 0 0 Z " fill="#0E0000" transform="translate(797,282)"/>
<path d="M0 0 C1.32 0 2.64 0 4 0 C4 5.61 4 11.22 4 17 C2.68 17 1.36 17 0 17 C0 11.39 0 5.78 0 0 Z " fill="#0E0000" transform="translate(397,280)"/>
<path d="M0 0 C1.32 0 2.64 0 4 0 C4 5.61 4 11.22 4 17 C2.68 17 1.36 17 0 17 C0 11.39 0 5.78 0 0 Z " fill="#0E0000" transform="translate(374,280)"/>
<path d="M0 0 C1.32 0 2.64 0 4 0 C4 5.61 4 11.22 4 17 C2.68 17 1.36 17 0 17 C0 11.39 0 5.78 0 0 Z " fill="#0E0000" transform="translate(327,280)"/>
<path d="M0 0 C1.32 0 2.64 0 4 0 C4 5.61 4 11.22 4 17 C2.68 17 1.36 17 0 17 C0 11.39 0 5.78 0 0 Z " fill="#0E0000" transform="translate(299,280)"/>
<path d="M0 0 C0.66 0 1.32 0 2 0 C2.50833591 1.24663331 3.00631145 2.49749387 3.5 3.75 C3.7784375 4.44609375 4.056875 5.1421875 4.34375 5.859375 C5 8 5 8 5 12 C2.36 12 -0.28 12 -3 12 C-2.68950274 10.56206608 -2.3765224 9.1246682 -2.0625 7.6875 C-1.88847656 6.88699219 -1.71445312 6.08648437 -1.53515625 5.26171875 C-1 3 -1 3 0 0 Z " fill="#DCE4DF" transform="translate(609,50)"/>
<path d="M0 0 C-0.33 1.65 -0.66 3.3 -1 5 C-2.65 4.67 -4.3 4.34 -6 4 C-5.67 3.01 -5.34 2.02 -5 1 C-2 0 -2 0 0 0 Z " fill="#DBEBF3" transform="translate(622,585)"/>
<path d="M0 0 C-0.33 1.65 -0.66 3.3 -1 5 C-2.65 4.67 -4.3 4.34 -6 4 C-5.67 3.01 -5.34 2.02 -5 1 C-2 0 -2 0 0 0 Z " fill="#DBEBF3" transform="translate(594,585)"/>
</svg>
